<?xml version="1.0" standalone="no"?>
<!DOCTYPE svg PUBLIC "-//W3C//DTD SVG 20010904//EN"
 "http://www.w3.org/TR/2001/REC-SVG-20010904/DTD/svg10.dtd">
<svg version="1.0" xmlns="http://www.w3.org/2000/svg"
 width="450.000000pt" height="450.000000pt" viewBox="0 0 450.000000 450.000000"
 preserveAspectRatio="xMidYMid meet">
<metadata>
Created by potrace 1.14, written by Peter Selinger 2001-2017
</metadata>
<g transform="translate(0.000000,450.000000) scale(0.100000,-0.100000)"
fill="#000000" stroke="none">
<path d="M813 3199 c-23 -4 -54 -14 -70 -22 -26 -14 -28 -20 -31 -76 -2 -34
-5 -70 -7 -80 -2 -10 -7 -64 -10 -118 l-7 -100 33 -24 c68 -49 176 -20 265 70
24 24 50 63 58 89 57 167 -54 292 -231 261z m101 -122 c41 -41 22 -111 -49
-182 -51 -51 -69 -52 -54 -2 5 17 12 48 15 67 3 19 8 38 10 41 2 3 6 21 9 39
6 36 21 60 37 60 5 0 19 -11 32 -23z"/>
<path d="M1357 3204 c-1 -1 -24 -5 -52 -9 -57 -7 -125 -21 -130 -27 -8 -8 -53
-339 -49 -356 6 -19 56 -57 76 -57 48 2 170 29 174 39 3 7 0 25 -6 40 -10 27
-12 28 -70 24 -49 -3 -60 -1 -55 10 3 7 5 17 5 22 0 8 22 15 85 26 62 10 64
12 54 46 -11 40 -25 49 -70 46 l-37 -3 14 45 c8 25 14 45 14 46 0 0 6 1 13 1
63 4 121 13 129 21 13 13 -9 81 -25 83 -27 3 -68 5 -70 3z"/>
<path d="M1761 3197 c-9 -12 -33 -101 -48 -177 -2 -13 -5 -26 -6 -27 -6 -5
-56 -11 -60 -7 -3 3 4 39 15 81 17 69 18 77 3 93 -18 20 -98 45 -113 36 -5 -3
-12 -37 -16 -75 -4 -38 -9 -80 -11 -93 -2 -13 -6 -48 -10 -78 -3 -30 -9 -73
-12 -95 -11 -77 -11 -77 35 -93 52 -17 60 -11 68 49 9 63 20 79 55 79 17 0 28
-3 26 -7 -3 -5 -8 -29 -11 -55 -7 -53 4 -65 65 -70 30 -3 33 0 41 32 11 47 13
53 38 140 11 41 23 82 25 90 2 8 11 38 19 65 23 73 21 81 -27 104 -51 25 -61
26 -76 8z"/>
<path d="M2599 3202 c-16 -3 -88 -139 -123 -232 -3 -8 -4 23 -3 70 2 84 2 85
-27 99 -39 18 -74 17 -90 -4 -6 -9 -27 -55 -46 -101 -18 -46 -35 -84 -38 -84
-2 0 -3 39 -2 88 4 133 5 128 -41 146 -23 9 -50 14 -61 10 -20 -6 -20 -12 -15
-163 7 -165 13 -225 28 -253 9 -17 89 -35 107 -24 6 3 24 36 41 73 17 36 33
64 35 62 2 -2 6 -25 9 -52 7 -58 10 -63 44 -74 50 -17 86 -10 100 17 34 67
166 346 168 355 5 31 -51 74 -86 67z"/>
<path d="M2874 3194 c-83 -15 -116 -22 -120 -26 -4 -5 -13 -54 -20 -118 -3
-30 -8 -57 -9 -60 -5 -8 -19 -142 -18 -168 1 -25 37 -61 62 -63 61 -5 181 19
188 38 3 8 0 26 -8 40 -12 23 -18 24 -71 21 -55 -4 -58 -3 -52 16 8 25 22 35
49 37 22 1 47 5 81 13 20 5 22 10 13 38 -11 40 -25 49 -70 46 l-37 -3 14 45
c8 25 14 45 14 46 0 0 6 1 13 1 38 0 123 15 130 22 12 12 -11 81 -26 82 -44 5
-73 3 -133 -7z"/>
<path d="M3141 3196 c-7 -8 -13 -22 -16 -32 -2 -11 -9 -41 -15 -69 -6 -27 -14
-60 -16 -72 -2 -13 -6 -35 -9 -50 -5 -26 -17 -121 -17 -133 -1 -33 7 -49 35
-68 l34 -22 92 19 c50 10 94 20 96 22 2 2 -3 19 -11 37 -14 33 -15 34 -69 30
l-55 -3 6 34 c4 19 21 87 39 150 18 64 31 119 28 124 -6 10 -53 33 -84 40 -17
5 -31 2 -38 -7z"/>
<path d="M3574 3188 c-34 -38 -174 -351 -174 -389 0 -20 22 -35 59 -40 19 -3
28 4 43 31 27 48 27 48 83 55 28 4 53 9 58 12 4 2 7 -11 7 -29 0 -19 6 -42 13
-52 16 -22 85 -33 91 -14 3 7 7 102 9 210 4 142 2 200 -6 206 -15 12 -59 22
-117 29 -38 4 -48 1 -66 -19z m70 -189 c-1 -53 -1 -54 -32 -56 -18 -2 -32 0
-32 2 0 12 55 113 60 110 3 -2 5 -27 4 -56z"/>
<path d="M1976 3192 c-7 -11 -33 -128 -41 -185 -3 -27 -8 -59 -11 -70 -2 -12
-7 -52 -10 -88 -7 -74 -3 -79 63 -93 l31 -7 13 58 c7 32 14 63 15 68 2 6 5 21
8 35 12 54 16 68 39 152 27 96 28 96 -36 123 -40 17 -63 19 -71 7z"/>
<path d="M1869 2620 c-175 -36 -311 -118 -425 -255 -80 -96 -124 -196 -149
-335 -13 -73 -13 -254 0 -315 23 -109 57 -193 118 -283 35 -53 46 -62 66 -59
13 3 42 -4 65 -14 62 -27 123 -20 157 19 40 45 48 87 50 271 3 237 26 314 121
410 107 108 334 185 515 173 37 -2 74 -7 83 -12 22 -12 67 -105 85 -176 20
-80 25 -185 11 -276 l-11 -73 -37 -6 c-55 -9 -64 -21 -71 -97 -9 -103 -43
-154 -138 -202 -49 -25 -62 -25 -54 0 9 29 -13 126 -32 142 -14 11 -17 11 -21
-2 -5 -15 -71 -82 -179 -181 -67 -60 -86 -107 -64 -155 9 -20 18 -24 51 -24
34 0 42 -4 52 -26 11 -24 14 -25 74 -19 34 3 88 12 120 20 68 17 195 74 207
93 4 6 14 12 22 12 8 0 52 37 97 83 109 109 171 225 204 382 2 11 7 61 11 110
26 385 -193 696 -557 790 -92 24 -267 26 -371 5z"/>
<path d="M3548 2635 c-2 -1 -24 -5 -49 -8 -69 -8 -155 -35 -237 -74 -78 -38
-230 -171 -259 -228 -9 -16 -19 -32 -22 -35 -13 -10 -48 -85 -69 -150 -29 -87
-40 -175 -37 -290 5 -177 37 -281 124 -410 116 -173 290 -280 503 -310 85 -13
235 -12 243 0 6 10 -57 95 -183 249 -34 42 -72 91 -84 109 -11 18 -24 30 -28
25 -4 -4 -22 -36 -40 -70 l-33 -62 -31 17 c-42 24 -139 118 -133 129 3 5 8 21
11 36 3 15 8 36 11 47 6 18 2 20 -44 20 l-50 0 -18 58 c-14 44 -18 89 -17 197
1 157 13 206 74 307 28 47 45 63 89 84 50 25 60 26 145 21 50 -4 100 -9 111
-11 61 -13 140 -37 222 -69 l92 -37 42 24 c53 31 72 25 63 -20 -5 -29 -1 -38
43 -86 26 -29 56 -59 66 -67 15 -10 18 -21 13 -50 -14 -76 -13 -87 7 -124 20
-36 20 -39 5 -65 -19 -30 -56 -39 -89 -22 -29 16 -43 1 -30 -33 12 -32 -3 -47
-44 -43 -27 3 -45 20 -86 77 -12 17 -28 23 -71 27 -54 4 -57 3 -71 -24 -22
-43 -27 -91 -17 -166 17 -115 103 -350 144 -391 10 -9 33 -17 52 -17 19 0 43
-6 54 -12 46 -29 252 117 337 239 84 118 126 260 127 428 1 140 -7 204 -35
288 -81 239 -263 406 -518 472 -54 14 -273 29 -283 20z"/>
<path d="M170 2465 l0 -155 340 0 340 0 -79 -112 c-44 -62 -96 -135 -116 -163
-20 -27 -79 -111 -131 -185 -52 -74 -101 -143 -109 -153 -8 -9 -15 -19 -15
-22 0 -4 -45 -66 -83 -115 -7 -8 -25 -35 -41 -60 -16 -25 -46 -68 -67 -96
l-39 -51 0 -106 0 -107 565 0 565 0 0 150 0 150 -340 0 c-187 0 -340 3 -340 8
1 6 184 269 207 297 5 6 24 33 43 60 19 28 38 52 41 55 3 3 30 40 60 84 30 43
61 88 69 100 50 72 135 192 140 196 3 3 10 13 15 22 21 36 70 104 87 121 15
15 18 36 18 127 l0 110 -565 0 -565 0 0 -155z"/>
<path d="M1916 1988 c-69 -78 -84 -143 -89 -384 -3 -161 -5 -174 -29 -220 -36
-69 -85 -106 -148 -112 -30 -3 -50 -9 -50 -17 0 -23 162 -99 235 -111 l30 -4
1 108 c0 106 1 109 42 193 47 95 54 156 29 240 -30 99 -21 204 28 332 12 30
-9 19 -49 -25z"/>
</g>
</svg>
